<svg width="86" height="23" viewBox="0 0 86 23" fill="none" xmlns="http://www.w3.org/2000/svg">
<g clip-path="url(#clip0)">
<path d="M0 0.188011C0.688 0.0626703 1.40727 0 2.15782 0C2.90836 0 3.62764 0.0626703 4.34691 0.188011V22.6553C3.62764 22.7807 2.90836 22.8433 2.15782 22.8433C1.40727 22.8433 0.719273 22.7807 0 22.6553V0.188011ZM4.94109 14.3202L8.85018 6.76839C9.632 6.64305 10.4451 6.58038 11.2582 6.58038C12.04 6.58038 12.7905 6.64305 13.5411 6.76839L9.50691 14.1008L14.2291 22.6553C13.3847 22.7807 12.5716 22.8433 11.8211 22.8433C11.1018 22.8433 10.3513 22.7807 9.53818 22.6553L4.94109 14.3202Z" fill="#333026"/>
<path d="M16.6685 6.76809C16.9812 6.70542 17.2626 6.67408 17.5441 6.64275C17.8255 6.58008 18.1383 6.58008 18.451 6.58008C18.7637 6.58008 19.0452 6.61141 19.3579 6.64275C19.6394 6.67408 19.9521 6.73675 20.2335 6.79942C20.2961 6.89343 20.3586 7.05011 20.3899 7.23812C20.4525 7.42613 20.4837 7.64547 20.515 7.86482C20.5463 8.08417 20.5775 8.30351 20.6088 8.52286C20.6401 8.7422 20.6714 8.93021 20.6714 9.05555C21.1092 8.42885 21.6721 7.86482 22.3288 7.36346C22.9855 6.86209 23.7986 6.61141 24.7681 6.61141C24.987 6.61141 25.2059 6.61141 25.4874 6.64275C25.7375 6.67408 25.9565 6.70542 26.0815 6.73675C26.1128 6.9561 26.1441 7.17545 26.1754 7.45746C26.2066 7.70814 26.2066 7.99016 26.2066 8.27218C26.2066 8.61686 26.2066 8.99288 26.1754 9.40024C26.1441 9.8076 26.0815 10.1836 26.019 10.5596C25.8001 10.5283 25.5499 10.497 25.2685 10.497C24.987 10.497 24.8306 10.497 24.7681 10.497C24.4241 10.497 24.0175 10.5283 23.611 10.591C23.1732 10.6536 22.7666 10.8417 22.3914 11.155C22.0161 11.4684 21.6721 11.9384 21.4219 12.5338C21.1717 13.1605 21.0466 14.0065 21.0466 15.1032V22.655C20.6714 22.7177 20.2961 22.749 19.9521 22.7803C19.5768 22.8117 19.2328 22.8117 18.8888 22.8117C18.5448 22.8117 18.2008 22.8117 17.8255 22.7803C17.4815 22.749 17.1063 22.7177 16.6997 22.655L16.6685 6.76809Z" fill="#333026"/>
<path d="M36.6203 12.1896C36.6203 11.6882 36.5265 11.3122 36.3701 10.9988C36.2138 10.6855 35.9949 10.4661 35.6821 10.2781C35.4007 10.0901 35.0567 9.99612 34.6189 9.93345C34.2123 9.87078 33.7432 9.83945 33.2116 9.83945C32.117 9.83945 30.9287 10.0588 29.6778 10.4975C29.3963 9.96479 29.1774 9.46342 29.021 8.9934C28.8647 8.52337 28.8021 7.95934 28.8021 7.3013C29.709 6.98795 30.6159 6.7686 31.4916 6.61192C32.3985 6.45525 33.2429 6.39258 33.9934 6.39258C36.1199 6.39258 37.7774 6.89394 38.9658 7.928C40.1541 8.96206 40.7483 10.5915 40.7483 12.8476V22.0602C40.029 22.2795 39.1534 22.4988 38.1527 22.7182C37.1207 22.9375 35.9636 23.0315 34.6814 23.0315C33.6494 23.0315 32.6799 22.9375 31.8043 22.7495C30.9287 22.5615 30.1781 22.2482 29.5527 21.8408C28.9272 21.4021 28.4581 20.8694 28.1141 20.18C27.7701 19.4907 27.6138 18.676 27.6138 17.7046C27.6138 16.7332 27.8327 15.8871 28.2392 15.2291C28.6458 14.5711 29.2087 14.0384 29.8654 13.631C30.5221 13.2236 31.2727 12.9416 32.0858 12.7849C32.8989 12.5969 33.712 12.5343 34.525 12.5343C35.1192 12.5343 35.7759 12.5656 36.4952 12.6283V12.1896H36.6203ZM36.6203 15.3544C36.3701 15.3231 36.1199 15.2918 35.8385 15.2604C35.557 15.2291 35.3069 15.2291 35.0567 15.2291C34.0559 15.2291 33.2741 15.4171 32.6799 15.7618C32.0858 16.1065 31.8043 16.7018 31.8043 17.4852C31.8043 18.0179 31.9294 18.4253 32.1483 18.7073C32.3672 18.9893 32.6487 19.2087 32.9614 19.334C33.2741 19.4593 33.6181 19.5533 33.9621 19.5847C34.3061 19.616 34.6189 19.616 34.9003 19.616C35.213 19.616 35.5258 19.5847 35.8072 19.5533C36.1199 19.4907 36.3701 19.4593 36.589 19.428L36.6203 15.3544Z" fill="#333026"/>
<path d="M44.689 6.768C45.0017 6.70533 45.2831 6.674 45.5646 6.64266C45.8461 6.61133 46.1275 6.61133 46.4715 6.61133C46.7842 6.61133 47.0657 6.64266 47.3784 6.674C47.6599 6.70533 47.9726 6.768 48.2541 6.83067C48.3166 6.92468 48.3791 7.08136 48.4104 7.26937C48.473 7.45738 48.5042 7.67672 48.5355 7.89607C48.5668 8.11542 48.5981 8.33476 48.6293 8.55411C48.6606 8.77345 48.6919 8.96146 48.6919 9.0868C49.1297 8.4601 49.6926 7.89607 50.3493 7.39471C51.0061 6.89334 51.8191 6.64266 52.7886 6.64266C53.0075 6.64266 53.2264 6.64266 53.5079 6.674C53.7581 6.70533 53.977 6.73667 54.1021 6.768C54.1333 6.98735 54.1646 7.2067 54.1959 7.48871C54.2271 7.73939 54.2271 8.02141 54.2271 8.30343C54.2271 8.64811 54.2271 9.02413 54.1959 9.43149C54.1646 9.83885 54.1021 10.2149 54.0395 10.5909C53.8206 10.5596 53.5704 10.5282 53.289 10.5282C53.0075 10.5282 52.8511 10.5282 52.7886 10.5282C52.4446 10.5282 52.0381 10.5596 51.6315 10.6222C51.225 10.6849 50.7871 10.8729 50.4119 11.1863C50.0366 11.4996 49.6926 11.9696 49.4424 12.565C49.1922 13.1604 49.0671 14.0378 49.0671 15.1345V22.6863C48.6919 22.7489 48.3166 22.7803 47.9726 22.8116C47.5973 22.8429 47.2533 22.8429 46.9093 22.8429C46.5653 22.8429 46.2213 22.8429 45.8461 22.8116C45.5021 22.7803 45.1268 22.7489 44.7202 22.6863L44.689 6.768Z" fill="#333026"/>
<path d="M56.7598 0.188011C57.4478 0.0626703 58.167 0 58.9176 0C59.6681 0 60.3874 0.0626703 61.1067 0.188011V22.6553C60.3874 22.7807 59.6681 22.8433 58.9176 22.8433C58.167 22.8433 57.479 22.7807 56.7598 22.6553V0.188011Z" fill="#333026"/>
<path d="M73.3035 2.94582C73.6475 2.85182 73.9915 2.82048 74.3355 2.78915C74.6795 2.75781 75.0235 2.75781 75.3362 2.75781C75.6489 2.75781 76.0242 2.75781 76.3995 2.78915C76.7748 2.82048 77.15 2.88315 77.494 2.94582L72.8969 10.905C72.5529 10.999 72.2089 11.0303 71.8649 11.0616C71.5209 11.093 71.177 11.093 70.8642 11.093C70.5515 11.093 70.2075 11.093 69.8948 11.0616C69.582 11.0303 69.238 10.999 68.894 10.905L73.3035 2.94582Z" fill="#F8971D"/>
<path d="M78.1816 15.7305C77.0245 15.4172 76.1489 14.9158 75.4922 14.2578C74.8354 13.5997 74.5227 12.6597 74.5227 11.3436C74.5227 9.77686 75.0856 8.55479 76.1802 7.6774C77.306 6.80002 78.8071 6.36133 80.746 6.36133C81.5278 6.36133 82.3409 6.424 83.0914 6.58067C83.8733 6.73735 84.6551 6.92536 85.4369 7.23871C85.4056 7.77141 85.2805 8.33544 85.1242 8.89948C84.9678 9.46351 84.7802 9.96487 84.53 10.4036C84.0296 10.1842 83.498 10.0275 82.9038 9.87087C82.3096 9.71419 81.6842 9.65152 81.0274 9.65152C80.3394 9.65152 79.7765 9.74552 79.4013 9.96487C79.026 10.1842 78.8071 10.5289 78.8071 10.9989C78.8071 11.4376 78.9322 11.7823 79.2136 11.939C79.4951 12.127 79.8704 12.2837 80.402 12.4717L82.1533 13.0044C82.7162 13.1611 83.2478 13.3804 83.7169 13.5997C84.186 13.8504 84.5613 14.1324 84.9053 14.4771C85.218 14.8218 85.4994 15.2605 85.6871 15.7619C85.8747 16.2632 85.9685 16.8899 85.9685 17.642C85.9685 18.394 85.8122 19.1147 85.4994 19.7728C85.1867 20.4308 84.7176 20.9948 84.1234 21.4649C83.5293 21.9349 82.7787 22.3109 81.9343 22.5929C81.09 22.875 80.0893 23.0003 79.026 23.0003C78.5256 23.0003 78.0878 23.0003 77.6813 22.969C77.2747 22.9376 76.8682 22.875 76.4929 22.8123C76.1176 22.7496 75.7423 22.6556 75.3671 22.5616C74.9918 22.4676 74.5853 22.3109 74.1787 22.1542C74.21 21.5902 74.3038 21.0575 74.4602 20.4935C74.6165 19.9294 74.8042 19.3968 75.0543 18.8641C75.7423 19.1461 76.3678 19.3341 76.962 19.4594C77.5562 19.5848 78.1816 19.6474 78.8384 19.6474C79.1198 19.6474 79.4325 19.6161 79.7765 19.5848C80.1205 19.5221 80.4333 19.4281 80.7147 19.3027C80.9962 19.1774 81.2463 18.9894 81.434 18.77C81.6216 18.5507 81.7154 18.2687 81.7154 17.924C81.7154 17.4226 81.5591 17.0779 81.2776 16.8586C80.9962 16.6393 80.5583 16.4512 80.0267 16.2946L78.1816 15.7305Z" fill="#F8971D"/>
<path d="M61.6699 14.3199L65.579 6.76809C66.3608 6.64275 67.1739 6.58008 67.987 6.58008C68.7688 6.58008 69.5194 6.64275 70.2699 6.76809L66.2357 14.1005L70.9579 22.655C70.1136 22.7803 69.3005 22.843 68.5499 22.843C67.8306 22.843 67.0801 22.7803 66.267 22.655L61.6699 14.3199Z" fill="#333026"/>
</g>
<defs>
<clipPath id="clip0">
<rect width="86" height="23" fill="white"/>
</clipPath>
</defs>
</svg>
