<svg width="86" height="23" viewBox="0 0 86 23" fill="none" xmlns="http://www.w3.org/2000/svg">
<g clip-path="url(#clip0)">
<path d="M0 0.188011C0.688 0.0626703 1.40727 0 2.15782 0C2.90836 0 3.62764 0.0626703 4.34691 0.188011V22.6553C3.62764 22.7807 2.90836 22.8433 2.15782 22.8433C1.40727 22.8433 0.719273 22.7807 0 22.6553V0.188011ZM4.94109 14.3202L8.85018 6.76839C9.632 6.64305 10.4451 6.58038 11.2582 6.58038C12.04 6.58038 12.7905 6.64305 13.5411 6.76839L9.50691 14.1008L14.2291 22.6553C13.3847 22.7807 12.5716 22.8433 11.8211 22.8433C11.1018 22.8433 10.3513 22.7807 9.53818 22.6553L4.94109 14.3202Z" fill="#333026"/>
<path d="M16.668 6.76809C16.9807 6.70542 17.2622 6.67408 17.5436 6.64275C17.8251 6.58008 18.1378 6.58008 18.4505 6.58008C18.7632 6.58008 19.0447 6.61141 19.3574 6.64275C19.6389 6.67408 19.9516 6.73675 20.2331 6.79942C20.2956 6.89343 20.3581 7.05011 20.3894 7.23812C20.452 7.42613 20.4832 7.64547 20.5145 7.86482C20.5458 8.08417 20.5771 8.30351 20.6083 8.52286C20.6396 8.7422 20.6709 8.93021 20.6709 9.05555C21.1087 8.42885 21.6716 7.86482 22.3283 7.36346C22.9851 6.86209 23.7981 6.61141 24.7676 6.61141C24.9865 6.61141 25.2054 6.61141 25.4869 6.64275C25.7371 6.67408 25.956 6.70542 26.0811 6.73675C26.1123 6.9561 26.1436 7.17545 26.1749 7.45746C26.2061 7.70814 26.2062 7.99016 26.2062 8.27218C26.2062 8.61686 26.2061 8.99288 26.1749 9.40024C26.1436 9.8076 26.0811 10.1836 26.0185 10.5596C25.7996 10.5283 25.5494 10.497 25.268 10.497C24.9865 10.497 24.8301 10.497 24.7676 10.497C24.4236 10.497 24.0171 10.5283 23.6105 10.591C23.1727 10.6536 22.7661 10.8417 22.3909 11.155C22.0156 11.4684 21.6716 11.9384 21.4214 12.5338C21.1712 13.1605 21.0462 14.0065 21.0462 15.1032V22.655C20.6709 22.7177 20.2956 22.749 19.9516 22.7803C19.5763 22.8117 19.2323 22.8117 18.8883 22.8117C18.5443 22.8117 18.2003 22.8117 17.8251 22.7803C17.4811 22.749 17.1058 22.7177 16.6992 22.655L16.668 6.76809Z" fill="#333026"/>
<path d="M36.6208 12.1896C36.6208 11.6882 36.527 11.3122 36.3706 10.9988C36.2143 10.6855 35.9953 10.4661 35.6826 10.2781C35.4012 10.0901 35.0572 9.99612 34.6193 9.93345C34.2128 9.87078 33.7437 9.83945 33.2121 9.83945C32.1175 9.83945 30.9292 10.0588 29.6783 10.4975C29.3968 9.96479 29.1779 9.46342 29.0215 8.9934C28.8652 8.52337 28.8026 7.95934 28.8026 7.3013C29.7095 6.98795 30.6164 6.7686 31.4921 6.61192C32.399 6.45525 33.2433 6.39258 33.9939 6.39258C36.1204 6.39258 37.7779 6.89394 38.9663 7.928C40.1546 8.96206 40.7488 10.5915 40.7488 12.8476V22.0602C40.0295 22.2795 39.1539 22.4988 38.1532 22.7182C37.1212 22.9375 35.9641 23.0315 34.6819 23.0315C33.6499 23.0315 32.6804 22.9375 31.8048 22.7495C30.9292 22.5615 30.1786 22.2482 29.5532 21.8408C28.9277 21.4021 28.4586 20.8694 28.1146 20.18C27.7706 19.4907 27.6143 18.676 27.6143 17.7046C27.6143 16.7332 27.8332 15.8871 28.2397 15.2291C28.6463 14.5711 29.2092 14.0384 29.8659 13.631C30.5226 13.2236 31.2732 12.9416 32.0863 12.7849C32.8993 12.5969 33.7124 12.5343 34.5255 12.5343C35.1197 12.5343 35.7764 12.5656 36.4957 12.6283V12.1896H36.6208ZM36.6208 15.3544C36.3706 15.3231 36.1204 15.2918 35.839 15.2604C35.5575 15.2291 35.3073 15.2291 35.0572 15.2291C34.0564 15.2291 33.2746 15.4171 32.6804 15.7618C32.0863 16.1065 31.8048 16.7018 31.8048 17.4852C31.8048 18.0179 31.9299 18.4253 32.1488 18.7073C32.3677 18.9893 32.6492 19.2087 32.9619 19.334C33.2746 19.4593 33.6186 19.5533 33.9626 19.5847C34.3066 19.616 34.6193 19.616 34.9008 19.616C35.2135 19.616 35.5263 19.5847 35.8077 19.5533C36.1204 19.4907 36.3706 19.4593 36.5895 19.428L36.6208 15.3544Z" fill="#333026"/>
<path d="M44.6885 6.768C45.0012 6.70533 45.2827 6.674 45.5641 6.64266C45.8456 6.61133 46.127 6.61133 46.471 6.61133C46.7838 6.61133 47.0652 6.64266 47.3779 6.674C47.6594 6.70533 47.9721 6.768 48.2536 6.83067C48.3161 6.92468 48.3787 7.08136 48.4099 7.26937C48.4725 7.45738 48.5037 7.67672 48.535 7.89607C48.5663 8.11542 48.5976 8.33476 48.6288 8.55411C48.6601 8.77345 48.6914 8.96146 48.6914 9.0868C49.1292 8.4601 49.6921 7.89607 50.3488 7.39471C51.0056 6.89334 51.8187 6.64266 52.7881 6.64266C53.007 6.64266 53.2259 6.64266 53.5074 6.674C53.7576 6.70533 53.9765 6.73667 54.1016 6.768C54.1328 6.98735 54.1641 7.2067 54.1954 7.48871C54.2267 7.73939 54.2267 8.02141 54.2267 8.30343C54.2267 8.64811 54.2267 9.02413 54.1954 9.43149C54.1641 9.83885 54.1016 10.2149 54.039 10.5909C53.8201 10.5596 53.5699 10.5282 53.2885 10.5282C53.007 10.5282 52.8507 10.5282 52.7881 10.5282C52.4441 10.5282 52.0376 10.5596 51.631 10.6222C51.2245 10.6849 50.7867 10.8729 50.4114 11.1863C50.0361 11.4996 49.6921 11.9696 49.4419 12.565C49.1918 13.1604 49.0667 14.0378 49.0667 15.1345V22.6863C48.6914 22.7489 48.3161 22.7803 47.9721 22.8116C47.5968 22.8429 47.2528 22.8429 46.9088 22.8429C46.5648 22.8429 46.2208 22.8429 45.8456 22.8116C45.5016 22.7803 45.1263 22.7489 44.7198 22.6863L44.6885 6.768Z" fill="#333026"/>
<path d="M56.7598 0.188011C57.4478 0.0626703 58.167 0 58.9176 0C59.6681 0 60.3874 0.0626703 61.1067 0.188011V22.6553C60.3874 22.7807 59.6681 22.8433 58.9176 22.8433C58.167 22.8433 57.479 22.7807 56.7598 22.6553V0.188011Z" fill="#333026"/>
<path d="M73.303 2.94582C73.647 2.85182 73.991 2.82048 74.335 2.78915C74.679 2.75781 75.023 2.75781 75.3357 2.75781C75.6485 2.75781 76.0237 2.75781 76.399 2.78915C76.7743 2.82048 77.1495 2.88315 77.4935 2.94582L72.8965 10.905C72.5525 10.999 72.2085 11.0303 71.8645 11.0616C71.5205 11.093 71.1765 11.093 70.8637 11.093C70.551 11.093 70.207 11.093 69.8943 11.0616C69.5816 11.0303 69.2376 10.999 68.8936 10.905L73.303 2.94582Z" fill="#F8971D"/>
<path d="M78.1816 15.7305C77.0245 15.4172 76.1489 14.9158 75.4922 14.2578C74.8354 13.5997 74.5227 12.6597 74.5227 11.3436C74.5227 9.77686 75.0856 8.55479 76.1802 7.6774C77.306 6.80002 78.8071 6.36133 80.746 6.36133C81.5278 6.36133 82.3409 6.424 83.0914 6.58067C83.8733 6.73735 84.6551 6.92536 85.4369 7.23871C85.4056 7.77141 85.2805 8.33544 85.1242 8.89948C84.9678 9.46351 84.7802 9.96487 84.53 10.4036C84.0296 10.1842 83.498 10.0275 82.9038 9.87087C82.3096 9.71419 81.6842 9.65152 81.0274 9.65152C80.3394 9.65152 79.7765 9.74552 79.4013 9.96487C79.026 10.1842 78.8071 10.5289 78.8071 10.9989C78.8071 11.4376 78.9322 11.7823 79.2136 11.939C79.4951 12.127 79.8704 12.2837 80.402 12.4717L82.1533 13.0044C82.7162 13.1611 83.2478 13.3804 83.7169 13.5997C84.186 13.8504 84.5613 14.1324 84.9053 14.4771C85.218 14.8218 85.4994 15.2605 85.6871 15.7619C85.8747 16.2632 85.9685 16.8899 85.9685 17.642C85.9685 18.394 85.8122 19.1147 85.4994 19.7728C85.1867 20.4308 84.7176 20.9948 84.1234 21.4649C83.5293 21.9349 82.7787 22.3109 81.9343 22.5929C81.09 22.875 80.0893 23.0003 79.026 23.0003C78.5256 23.0003 78.0878 23.0003 77.6813 22.969C77.2747 22.9376 76.8682 22.875 76.4929 22.8123C76.1176 22.7496 75.7423 22.6556 75.3671 22.5616C74.9918 22.4676 74.5853 22.3109 74.1787 22.1542C74.21 21.5902 74.3038 21.0575 74.4602 20.4935C74.6165 19.9294 74.8042 19.3968 75.0543 18.8641C75.7423 19.1461 76.3678 19.3341 76.962 19.4594C77.5562 19.5848 78.1816 19.6474 78.8384 19.6474C79.1198 19.6474 79.4325 19.6161 79.7765 19.5848C80.1205 19.5221 80.4333 19.4281 80.7147 19.3027C80.9962 19.1774 81.2463 18.9894 81.434 18.77C81.6216 18.5507 81.7154 18.2687 81.7154 17.924C81.7154 17.4226 81.5591 17.0779 81.2776 16.8586C80.9962 16.6393 80.5583 16.4512 80.0267 16.2946L78.1816 15.7305Z" fill="#F8971D"/>
<path d="M61.6699 14.3199L65.579 6.76809C66.3608 6.64275 67.1739 6.58008 67.987 6.58008C68.7688 6.58008 69.5194 6.64275 70.2699 6.76809L66.2357 14.1005L70.9579 22.655C70.1136 22.7803 69.3005 22.843 68.5499 22.843C67.8306 22.843 67.0801 22.7803 66.267 22.655L61.6699 14.3199Z" fill="#333026"/>
</g>
<defs>
<clipPath id="clip0">
<rect width="86" height="23" fill="white"/>
</clipPath>
</defs>
</svg>
